HIERARCHY
ROOT Hips
{
  OFFSET -331.093 83.8371 -317.828
  CHANNELS 6 Xposition Yposition Zposition Zrotation Xrotation Yrotation
  JOINT LeftUpLeg
  {
    OFFSET 8.64259 1.95398 -2.38835
    CHANNELS 3 Zrotation Xrotation Yrotation
    JOINT LeftLeg
    {
      OFFSET 43.7702 0 0
      CHANNELS 3 Zrotation Xrotation Yrotation
      JOINT LeftFoot
      {
        OFFSET 40.6238 0 0
        CHANNELS 3 Zrotation Xrotation Yrotation
        JOINT LeftToeBase
        {
          OFFSET 12.7242 0 0
          CHANNELS 3 Zrotation Xrotation Yrotation
          End Site
          {
            OFFSET 0 0 0
          }
        }
      }
    }
  }
  JOINT RightUpLeg
  {
    OFFSET -8.2249 1.95398 -2.59336
    CHANNELS 3 Zrotation Xrotation Yrotation
    JOINT RightLeg
    {
      OFFSET 43.5653 0 0
      CHANNELS 3 Zrotation Xrotation Yrotation
      JOINT RightFoot
      {
        OFFSET 40.6238 0 0
        CHANNELS 3 Zrotation Xrotation Yrotation
        JOINT RightToeBase
        {
          OFFSET 12.7242 0 0
          CHANNELS 3 Zrotation Xrotation Yrotation
          End Site
          {
            OFFSET 0 0 0
          }
        }
      }
    }
  }
  JOINT Spine
  {
    OFFSET 0.165834 0.87714 6.61349
    CHANNELS 3 Zrotation Xrotation Yrotation
    JOINT Spine1
    {
      OFFSET 7.38963 1.71661e-005 0
      CHANNELS 3 Zrotation Xrotation Yrotation
      JOINT Spine2
      {
        OFFSET 11.9445 1.14441e-005 0
        CHANNELS 3 Zrotation Xrotation Yrotation
        JOINT Spine3
        {
          OFFSET 14.7254 4.19617e-005 0
          CHANNELS 3 Zrotation Xrotation Yrotation
          JOINT Spine4
          {
            OFFSET 10.9679 0 0
            CHANNELS 3 Zrotation Xrotation Yrotation
            JOINT RightShoulder
            {
              OFFSET 2.46616 -1.6653 3.69651
              CHANNELS 3 Zrotation Xrotation Yrotation
              JOINT RightArm
              {
                OFFSET 13.0012 0 0
                CHANNELS 3 Zrotation Xrotation Yrotation
                JOINT RightForeArm
                {
                  OFFSET 28.7848 1.62311e-005 0
                  CHANNELS 3 Zrotation Xrotation Yrotation
                  JOINT RightHand
                  {
                    OFFSET 26.5688 1.62095e-005 0
                    CHANNELS 3 Zrotation Xrotation Yrotation
                    End Site
                    {
                      OFFSET 0 0 0
                    }
                  }
                }
              }
            }
            JOINT LeftShoulder
            {
              OFFSET 2.38034 -1.29275 -3.7523
              CHANNELS 3 Zrotation Xrotation Yrotation
              JOINT LeftArm
              {
                OFFSET 16.3182 6.07031e-005 0
                CHANNELS 3 Zrotation Xrotation Yrotation
                JOINT LeftForeArm
                {
                  OFFSET 27.0901 0 0
                  CHANNELS 3 Zrotation Xrotation Yrotation
                  JOINT LeftHand
                  {
                    OFFSET 24.5451 1.51738e-005 0
                    CHANNELS 3 Zrotation Xrotation Yrotation
                    End Site
                    {
                      OFFSET 0 0 0
                    }
                  }
                }
              }
            }
            JOINT Neck
            {
              OFFSET 5.0226 -0.0266342 0
              CHANNELS 3 Zrotation Xrotation Yrotation
              JOINT Head
              {
                OFFSET 6.69364 2.86102e-005 0
                CHANNELS 3 Zrotation Xrotation Yrotation
                End Site
                {
                  OFFSET 0 0 0
                }
              }
            }
          }
        }
      }
    }
  }
}
MOTION
Frames:	12
Frame Time:	0.0416667
-3.4135 97.993 -23.8745 -91.8829 -60.7583 -89.9907 -175 7.85085 91.0237 -27.4713 11.4054 0.035772 66.9029 5.34173 5.22092 36.0495 7.94464 7.42804 176.684 12.3774 83.8832 -40.1143 -7.94868 -7.77906 69.5574 -5.6168 -2.96946 38.2587 -2.25419 -10.2417 0.200361 7.71573 -89.896 11.4425 0.447188 0.162544 -0.228376 0.453911 0.142695 -22.764 0.377663 0.289434 -2.75131 0.377664 0.28943 93.1175 -37.9755 -98.1026 40.6934 -16.2089 24.3156 -16.166 -8.19102 -63.1597 -13.1255 -0.746582 1.08599 -91.4369 -45.4581 75.9223 -27.7429 12.1345 17.5542 21.2369 -0.676548 -78.7077 12.4572 0.912309 3.3271 1.64827 20.5437 4.45877 0.209794 19.7221 8.52663 
-0.0732154 98.4545 -19.7357 -88.5318 -69.2032 -85.8138 -176.616 7.39017 89.5985 -25.9536 17.2275 0.76726 67.0368 5.52881 4.60815 33.5343 6.45796 9.60983 178.771 14.5666 88.162 -42.6461 -7.23375 -7.08128 66.999 -3.82957 -2.19206 39.9809 -2.65579 -11.1879 0.0322697 7.68426 -89.7812 11.5049 0.166543 0.418964 -0.166147 0.184828 0.411217 -22.7008 0.0329391 0.449639 -2.68812 0.0329336 0.449647 93.044 -38.4342 -98.1244 41.5385 -16.3691 24.8263 -17.5071 -9.21706 -62.7069 -10.4596 -0.623227 1.09178 -91.3816 -44.8055 75.8365 -24.3879 9.26921 17.4551 20.2186 1.66242 -75.2312 11.9173 0.983367 4.18139 1.68517 16.5532 2.74653 2.91336 16.1198 6.35346 
3.31671 98.9605 -15.5002 -78.8128 -78.4658 -74.3927 -176.431 6.6957 89.6329 -24.1866 21.1134 0.195752 66.1979 5.10338 5.17552 31.716 5.19671 10.8552 179.789 17.0503 92.5779 -41.6417 -6.76665 -5.52425 63.4494 -1.92317 -1.17366 37.5433 -2.33943 -11.073 -0.223787 7.71596 -89.8521 11.4423 -0.376111 0.33267 -0.22861 -0.361105 0.34889 -22.764 -0.458715 0.204247 -2.75139 -0.458706 0.204249 93.1374 -38.695 -97.8981 42.1239 -16.823 25.7331 -16.0952 -9.34323 -61.659 -9.03443 -0.542425 0.992316 -91.5687 -44.7372 75.5247 -20.7096 8.2614 16.202 18.8139 1.52333 -74.7179 11.6991 0.95265 4.0652 1.11703 12.3338 1.69508 6.1384 12.1332 3.95917 
7.20748 98.4207 -11.3867 -28.2766 -84.3621 -23.8629 -177.11 6.91053 87.0758 -23.4613 16.3725 -0.18538 66.2522 4.89663 4.63917 33.3957 8.33859 15.3956 179.672 22.7433 93.9914 -41.1184 -6.1438 -4.12651 61.798 -0.791296 -0.536508 39.0981 -2.41405 -10.544 -0.45402 7.65459 -89.7759 11.5664 -0.798239 0.528896 -0.104374 -0.774197 0.563513 -22.6412 -0.920292 0.264529 -2.62859 -0.920295 0.264525 93.1458 -39.2737 -97.7501 42.5457 -17.4955 27.4109 -14.8305 -8.86144 -60.7303 -8.31374 -0.48315 0.6672 -91.6649 -44.435 75.2915 -17.5128 7.68714 13.0891 18.5888 1.02641 -75.6137 12.0359 0.904865 3.48977 -0.173757 8.09358 0.318049 9.64043 8.13014 2.29671 
11.1927 96.8866 -7.75462 39.1501 -80.6148 43.7567 -177.156 8.14032 84.6799 -26.9496 8.51797 -0.685996 68.1223 5.8949 3.38053 37.5225 13.4723 17.8178 178.737 29.6806 94.7885 -42.2237 -4.43039 -2.54054 64.2189 -1.54594 -1.02869 39.3433 -2.68997 -11.6853 -0.64242 7.67504 -89.8429 11.5266 -1.20454 0.436816 -0.14385 -1.18413 0.489411 -22.6834 -1.28013 0.0545552 -2.67078 -1.28012 0.0545588 93.5591 -39.1134 -97.0603 42.7387 -18.2234 29.1522 -13.5618 -9.27068 -58.9169 -8.09667 -0.406413 -0.503702 -92.1688 -45.1235 74.6917 -14.0246 6.5458 8.04195 18.5964 0.0760235 -78.0319 12.6888 0.950508 3.48998 -1.07063 3.93473 -0.324468 12.5093 4.02727 1.01762 
14.682 94.2865 -4.39456 57.9652 -73.2054 62.9766 -175.956 10.1468 83.3534 -33.6266 7.67848 -1.77931 68.0062 8.54183 8.42425 46.3955 19.2817 11.3973 178.196 37.8299 95.1507 -44.6411 -2.28162 -1.28424 64.7548 -1.65528 -1.10494 40.334 -2.89851 -12.0775 -0.734704 7.86814 -89.9532 11.1398 -1.44055 0.233519 -0.530331 -1.42887 0.296706 -23.0718 -1.44411 -0.210312 -3.05919 -1.44412 -0.210306 93.2997 -39.8195 -97.3588 41.942 -18.3897 30.6326 -12.56 -9.14553 -56.7373 -6.91989 -0.348806 -0.760164 -93.4551 -46.2677 73.0296 -9.77352 3.69765 1.51105 18.5239 -1.58338 -82.6995 13.3847 0.842325 2.36367 -0.739771 -0.250066 -3.04493 14.8406 0.440704 1.86489 
17.421 91.0692 -0.689745 67.5265 -66.0368 73.1892 -175.78 10.6527 83.8102 -42.2204 13.125 -0.943048 70.775 13.1106 11.8663 49.9834 21.302 8.8771 177.077 45.2073 95.638 -47.0032 -1.60111 0.0296394 65.5942 -1.88535 -1.24314 41.7314 -3.2782 -12.9141 -0.785661 8.26779 -90.0362 10.3396 -1.58174 0.0643339 -1.33038 -1.57738 0.13389 -23.8729 -1.52793 -0.414142 -3.86028 -1.52793 -0.414141 92.2152 -41.7275 -98.7875 40.3729 -19.749 31.0597 -11.8016 -12.4167 -53.0896 -9.45505 -0.448152 -0.827074 -94.3819 -46.2427 71.603 -5.68421 1.77213 -6.94076 16.5576 -3.77038 -87.707 14.7742 1.04919 3.17952 1.18005 -3.99845 -5.79516 16.0931 -2.83982 1.16804 
20.3465 87.9838 4.0245 71.1719 -59.5885 78.0254 -176.175 8.75575 86.409 -47.332 20.8456 0.629659 71.2653 15.7492 14.6996 60.337 26.6216 2.23877 175.183 51.5436 96.2827 -46.8009 -1.27194 1.66089 63.5419 -0.938181 -0.6866 44.9323 -3.73304 -12.9618 -0.879808 8.58676 -90.2362 9.69898 -1.86071 -0.321834 -1.97066 -1.87306 -0.239606 -24.5146 -1.67794 -0.866317 -4.50194 -1.67794 -0.866319 91.5865 -41.5134 -99.9055 40.1915 -20.9506 30.8918 -13.3394 -15.8328 -51.4868 -13.998 -0.745895 0.48618 -93.3896 -44.1575 72.5041 -6.11256 0.538228 -15.3005 17.7577 -4.69247 -91.5622 16.4994 1.32291 4.11561 4.00261 -6.60686 -6.94784 15.1456 -5.14465 0.455582 
24.8467 86.0685 10.2557 69.3888 -54.3968 76.9808 -176.631 1.89982 86.0174 -42.1264 25.0594 1.62928 71.581 16.8343 15.2875 61.8967 28.1935 2.48171 172.196 56.7816 96.3235 -45.405 -0.909311 3.55291 60.7984 0.391916 0.157353 49.1878 -4.79737 -14.5491 -0.963711 8.40449 -90.3956 10.0592 -2.10063 -0.611116 -1.61015 -2.12547 -0.51803 -24.155 -1.81983 -1.21434 -4.1423 -1.81982 -1.21436 91.5087 -40.9011 -100.192 40.6917 -19.3973 34.5057 -13.4685 -12.6091 -54.7571 -18.86 -0.949011 0.478043 -92.2355 -42.081 73.7123 -6.63735 4.30133 -19.9016 20.0764 -6.24832 -92.9067 14.3136 1.13309 3.93482 5.16861 -7.59004 -7.39279 13.0215 -5.82168 1.51768 
30.9389 85.2076 17.8824 69.055 -50.8337 77.2363 -176.39 -5.52757 89.1847 -33.6741 27.9767 2.35494 68.1543 10.32 9.05617 58.5409 30.5013 10.1123 166.742 58.915 98.6512 -51.7426 3.39656 5.77236 64.4943 -0.835354 -0.487546 42.4898 -2.0277 -7.36492 -1.13173 8.13121 -90.6586 10.5997 -2.55674 -1.07822 -1.06906 -2.60171 -0.964609 -23.6155 -2.11451 -1.79696 -3.60283 -2.1145 -1.79698 92.5654 -38.2627 -99.015 41.4536 -18.6264 36.8756 -9.52126 -7.40726 -58.282 -20.2618 -0.815615 -0.60583 -91.5904 -41.3413 74.5412 -7.81014 12.313 -16.5666 20.9005 -9.07584 -94.6313 12.6231 1.01001 3.97735 5.93506 -6.64778 -6.7935 10.4057 -4.65194 4.86295 
37.1078 84.7617 26.3283 64.5996 -50.447 74.8626 -173.568 -8.67788 93.3831 -27.0045 28.7804 0.857386 53.022 -5.33893 -2.92327 46.2056 24.8482 20.421 164.315 58.5208 103.344 -60.6222 9.29819 5.5371 73.5606 -4.84491 -2.57139 31.5718 -1.25471 -8.49089 -0.891113 7.75277 -91.0131 11.3477 -2.24548 -1.79361 -0.322382 -2.32223 -1.69304 -22.8565 -1.60279 -2.38541 -2.84386 -1.60279 -2.38541 92.8606 -36.4119 -98.9468 39.5829 -18.4812 34.7559 -9.09282 -5.16389 -61.1844 -22.102 -0.845734 -0.792447 -91.3922 -41.5606 74.9268 -11.4855 21.8893 -10.411 21.5512 -10.814 -92.9003 13.1715 0.958517 3.30359 8.40095 -5.43494 -5.00189 7.38842 -3.657 6.90098 
43.3381 84.4656 34.0374 62.6236 -49.564 72.5038 -175.288 -4.15388 89.0367 -38.4298 25.4452 1.50848 43.8003 -11.3431 -6.71673 19.83 -4.91614 16.4379 168.389 55.8711 101.103 -65.708 11.3716 2.90993 79.147 -6.78975 -3.38376 37.0914 -0.729718 -3.02551 -0.677781 7.64072 -91.0742 11.5735 -1.85117 -1.94891 -0.0974564 -1.93514 -1.86556 -22.6262 -1.18006 -2.41496 -2.61351 -1.18005 -2.41497 92.4461 -37.2928 -99.4722 33.2571 -17.7392 27.1695 -7.28397 -3.1557 -63.1463 -23.7873 -0.865115 -0.991692 -92.4179 -43.0366 73.7054 -16.4355 28.1397 -3.69639 23.3026 -8.64798 -85.9647 13.408 1.01973 3.62588 10.3548 -4.83888 -2.58119 6.2644 -3.70657 5.58339 
